<svg width="12" height="12" viewBox="0 0 12 12" fill="none" xmlns="http://www.w3.org/2000/svg">
<path d="M6 12C9.31372 12 12 9.31372 12 6C12 2.68629 9.31372 0 6 0C2.68629 0 0 2.68629 0 6C0 9.31372 2.68629 12 6 12Z" fill="#DA282A"/>
<path d="M8.70569 3.00379L3.26725 3.95997C3.21345 3.96919 3.16395 3.99646 3.12621 4.0377C3.08845 4.07894 3.06448 4.1319 3.05789 4.18865L3.00193 4.6642C2.99711 4.70485 3.00136 4.7461 3.01435 4.78471C3.02734 4.82335 3.04872 4.85825 3.07679 4.8867C3.10487 4.91518 3.13887 4.93638 3.17609 4.94872C3.21334 4.96102 3.2528 4.96409 3.29136 4.95764L4.35261 4.77146V8.71764C4.35266 8.76558 4.36508 8.8126 4.38857 8.85371C4.41207 8.89482 4.44576 8.92848 4.48603 8.95111C4.52633 8.97373 4.5717 8.98448 4.61735 8.98222C4.66301 8.97994 4.70723 8.96473 4.74527 8.93821L5.14952 8.66401C5.19727 8.63069 5.23652 8.58561 5.26375 8.53268C5.29101 8.47974 5.30546 8.42061 5.30582 8.36045V4.60453L6.75876 4.34954V7.12399C6.75866 7.29373 6.79842 7.4609 6.87453 7.61067L7.51998 8.88055C7.53822 8.91741 7.566 8.94815 7.60012 8.96927C7.63424 8.99039 7.67334 9.001 7.71292 8.99993H8.26381C8.3007 9.00014 8.33703 8.99039 8.36929 8.97163C8.40154 8.95288 8.42867 8.92574 8.44804 8.89283C8.46741 8.85991 8.4784 8.82232 8.47993 8.78366C8.48145 8.74499 8.47348 8.7066 8.45677 8.6721L7.80846 7.36783C7.7369 7.22091 7.69955 7.05827 7.69942 6.8933V4.1836L8.73367 4.00145C8.78729 3.99205 8.83655 3.96467 8.87411 3.92345C8.91167 3.88224 8.93552 3.82939 8.94205 3.77277L8.99801 3.29722C9.00295 3.2563 8.99867 3.21471 8.98553 3.17583C8.97239 3.13695 8.95071 3.10183 8.9223 3.0733C8.89389 3.04476 8.85948 3.02362 8.82187 3.01155C8.78424 2.99949 8.74445 2.99683 8.70569 3.00379Z" fill="white"/>
</svg>
