<svg width="21" height="21" viewBox="0 0 21 21" fill="none" xmlns="http://www.w3.org/2000/svg">
<path d="M3.00175 7.78575L3.0742 6.72513C3.08398 6.58274 3.14066 6.44786 3.23507 6.34233C3.32948 6.23679 3.4561 6.16675 3.59445 6.14355L16.3496 4.00756C16.4334 3.99351 16.5194 3.9991 16.6008 4.0239C16.6822 4.0487 16.7571 4.09206 16.8196 4.15069C16.8821 4.20932 16.9307 4.28168 16.9616 4.36228C16.9926 4.44287 17.005 4.52959 16.9982 4.61583L16.9167 5.63361C16.9042 5.78898 16.8413 5.9357 16.7379 6.05066C16.6344 6.16562 16.4964 6.24228 16.3454 6.26857L14.1471 6.64997V13.223C14.1471 13.6685 14.2512 14.1077 14.4507 14.5042L15.7044 16.997C15.7755 17.1382 15.8128 17.2948 15.8128 17.4535V17.5898C15.8128 17.6437 15.8025 17.6971 15.7823 17.7469C15.7621 17.7967 15.7324 17.842 15.6949 17.8801C15.6575 17.9182 15.613 17.9484 15.5641 17.969C15.5152 17.9895 15.4627 18.0001 15.4098 18H14.6584C14.3666 18 14.0802 17.919 13.8301 17.7658C13.5801 17.6126 13.3758 17.393 13.2391 17.1304L12.044 14.8336C11.8331 14.4286 11.7227 13.9771 11.7225 13.5187V7.12269L8.39056 7.75344V16.2173C8.39064 16.4288 8.34383 16.6375 8.25363 16.8279C8.16343 17.0184 8.03217 17.1857 7.86962 17.3173L7.2162 17.8462C7.09397 17.945 6.94244 17.9988 6.78634 17.9986H6.64144C6.50273 17.9986 6.3697 17.9425 6.27161 17.8427C6.17353 17.7428 6.11843 17.6074 6.11843 17.4662V8.06952L3.82077 8.52467C3.71686 8.54519 3.6097 8.54111 3.50759 8.51272C3.40548 8.48434 3.31116 8.43242 3.23191 8.36099C3.15267 8.28955 3.09063 8.20052 3.0506 8.10077C3.01057 8.00102 2.99431 7.89323 3.00175 7.78575Z" fill="white"/>
</svg>
