<svg viewBox="0 0 1024 1024" version="1.1" xmlns="http://www.w3.org/2000/svg" width="30" height="30"
    fill="#5856d6">
    <path
        d="M426.666667 554.666667h170.666666a42.666667 42.666667 0 0 0 0-85.333334h-170.666666a42.666667 42.666667 0 0 0 0 85.333334z m384-426.666667H213.333333a128 128 0 0 0-42.666666 248.32V768a128 128 0 0 0 128 128h426.666666a128 128 0 0 0 128-128V376.32A128 128 0 0 0 810.666667 128z m-42.666667 640a42.666667 42.666667 0 0 1-42.666667 42.666667H298.666667a42.666667 42.666667 0 0 1-42.666667-42.666667V384h512z m42.666667-469.333333H213.333333a42.666667 42.666667 0 0 1 0-85.333334h597.333334a42.666667 42.666667 0 0 1 0 85.333334z"></path>
</svg>