<svg t="1674023563990" class="icon" viewBox="0 0 1024 1024" version="1.1"
    xmlns="http://www.w3.org/2000/svg" p-id="14462" width="30" height="30">
    <path
        d="M512 822c171.208 0 310-138.792 310-310s-138.792-310-310-310-310 138.792-310 310 138.792 310 310 310z m0 90c-220.914 0-400-179.086-400-400S291.086 112 512 112s400 179.086 400 400-179.086 400-400 400z m44.19-326.972c-4.69 24.406-28.28 40.386-52.686 35.696-24.406-4.692-40.386-28.28-35.694-52.686 4.912-25.552 19.218-47.496 41.072-64.988 1.426-1.14 25.44-18.74 32.362-24.66 17.646-15.084 25.756-28.26 25.756-42.354 0-30.4-24.628-55.036-55-55.036s-55 24.638-55 55.036c0 24.854-20.148 45-45 45s-45-20.146-45-45c0-80.098 64.914-145.036 145-145.036s145 64.94 145 145.036c0 24.7-6.992 47.474-19.652 68.04-9.778 15.886-22.312 29.636-37.624 42.726-10.044 8.586-35.69 27.384-34.606 26.516-5.924 4.74-8.284 8.36-8.928 11.71zM468 687c0-24.852 20.148-45 45-45s45 20.148 45 45v1c0 24.852-20.148 45-45 45S468 712.852 468 688v-1z"
        fill="#444444" p-id="14463"></path>
</svg>