<svg width="27" height="26" viewBox="0 0 27 26" fill="none" xmlns="http://www.w3.org/2000/svg">
<path d="M4.45813 7.40209H22.5169C23.0374 7.40209 23.4575 6.98197 23.4575 6.46153C23.4575 5.94108 23.0374 5.52097 22.5169 5.52097H4.45813C3.93769 5.52097 3.51757 5.94108 3.51757 6.46153C3.51757 6.97884 3.94082 7.40209 4.45813 7.40209ZM6.5305 2.88112H20.4445C20.965 2.88112 21.3851 2.46101 21.3851 1.94056C21.3851 1.42012 20.965 1 20.4445 1H6.5305C6.01006 1 5.58994 1.42012 5.58994 1.94056C5.58994 2.46101 6.01006 2.88112 6.5305 2.88112ZM17.1745 16.5349H9.80052C9.28008 16.5349 8.85996 16.9551 8.85996 17.4755C8.85996 17.9959 9.28008 18.4161 9.80052 18.4161H17.1745C17.695 18.4161 18.1151 17.9959 18.1151 17.4755C18.1151 16.9551 17.695 16.5349 17.1745 16.5349Z" fill="#FF9F0A" stroke="#FF9F0A" stroke-width="0.5"/>
<path d="M24.0939 9.95102H2.88112C1.84651 9.95102 1 10.7975 1 11.8321V23.1189C1 24.1535 1.84651 25 2.88112 25H24.0939C25.1285 25 25.975 24.1535 25.975 23.1189V11.8321C25.975 10.7975 25.1285 9.95102 24.0939 9.95102ZM24.0908 23.1126L24.0877 23.1157H2.88739L2.88426 23.1126V11.8353L2.88739 11.8321H24.0877L24.0908 11.8353V23.1126Z" fill="#FF9F0A" stroke="#FF9F0A" stroke-width="0.5"/>
</svg>
