<svg width="29" height="26" viewBox="0 0 29 26" fill="none" xmlns="http://www.w3.org/2000/svg">
<path d="M23.7235 16.0239C23.5094 16.0239 23.2953 15.9416 23.1306 15.7769C23.0523 15.6992 22.9902 15.6069 22.9478 15.5051C22.9054 15.4034 22.8836 15.2942 22.8836 15.184C22.8836 15.0737 22.9054 14.9646 22.9478 14.8628C22.9902 14.761 23.0523 14.6687 23.1306 14.591L26.1281 11.5935C26.8034 10.9183 26.2764 10.0948 25.6999 9.51832L19.5237 3.34212C19.0296 2.84802 18.6838 2.71626 18.4861 2.68332C18.3379 2.66685 18.1238 2.66685 17.8273 2.96331L11.8488 8.94187C12.7217 9.50185 13.7099 9.56773 14.3357 9.02422C15.4063 8.08544 16.938 6.42198 16.9544 6.40551C17.2673 6.05965 17.7944 6.04317 18.1403 6.3561C18.4861 6.66903 18.5026 7.19607 18.1897 7.54193C18.1238 7.60781 16.5756 9.28774 15.4392 10.2924C13.9569 11.5935 11.6182 11.2806 9.98767 9.56773C9.67474 9.23833 9.67474 8.71129 10.0041 8.39837L16.625 1.77748C17.7779 0.624588 19.3096 0.756347 20.7096 2.15629L26.8858 8.33249C28.3845 9.83125 28.5492 11.5441 27.314 12.7794L24.3165 15.7769C24.1518 15.9416 23.9376 16.0239 23.7235 16.0239V16.0239Z" fill="#0A84FF" stroke="#0A84FF" stroke-width="0.5"/>
<path d="M14.5828 25C14.4675 25 14.3357 25 14.2204 24.9835C13.4958 24.8847 12.804 24.5389 12.2605 23.9953L5.55729 17.2756C4.43734 16.1557 3.9103 15.2663 3.43268 14.4922C3.15269 14.0311 2.88917 13.5864 2.52683 13.1252C2.42802 12.9935 2.31273 12.8617 2.19744 12.73C1.5057 11.89 1.07749 11.3465 1.04455 10.7865C1.04455 10.7536 1.04455 10.7206 1.02808 10.6877C0.978667 10.1936 0.863378 9.156 2.04921 7.97017L7.40192 2.61746C8.60422 1.41516 10.0206 2.10689 10.9594 2.58452L11.1076 2.6504C11.2559 2.71628 11.4206 2.79863 11.5688 2.88098C12.5076 3.34213 13.6934 3.90211 14.7145 4.79148C15.0604 5.08794 15.1098 5.63144 14.7969 5.97731C14.5004 6.32318 13.9569 6.37259 13.6111 6.05966C12.7546 5.31852 11.6841 4.80795 10.8276 4.3962C10.663 4.31385 10.4983 4.23151 10.3336 4.16563L10.1853 4.08328C9.13125 3.55624 8.85127 3.50683 8.55481 3.80329L3.23504 9.156C2.60918 9.78185 2.65859 10.1442 2.69153 10.5065C2.69153 10.5395 2.69153 10.5559 2.708 10.5889C2.79035 10.803 3.25151 11.3465 3.49856 11.6429C3.61385 11.7912 3.74561 11.9394 3.84442 12.0712C4.28911 12.6311 4.58557 13.1252 4.88203 13.6193C5.34318 14.3934 5.7714 15.1181 6.74312 16.0898L13.4464 22.793C13.7263 23.073 14.0887 23.2542 14.4346 23.3036C14.6816 23.3366 14.8957 23.2871 15.011 23.1883C15.3404 22.8589 17.0203 21.3766 19.359 19.3179C20.6766 18.165 22.1589 16.8639 22.3071 16.6992C22.3236 16.6827 23.1801 15.5792 22.3895 14.7887L16.1968 8.59602C15.8674 8.26662 15.8674 7.73959 16.1968 7.41019C16.5262 7.08079 17.0533 7.08079 17.3827 7.41019L23.5753 13.6029C24.2671 14.2946 24.5306 15.2169 24.3329 16.1886C24.1847 16.9133 23.8059 17.5721 23.493 17.885C23.3118 18.0662 22.2742 18.972 20.4625 20.5696C18.7002 22.1178 16.5098 24.0448 16.1968 24.3577C15.8016 24.7694 15.2251 25 14.5828 25V25Z" fill="#0A84FF" stroke="#0A84FF" stroke-width="0.5"/>
<path d="M21.566 18.6426C21.3519 18.6426 21.1378 18.5603 20.9731 18.3956L17.9591 15.3816C17.6297 15.0522 17.6297 14.5252 17.9591 14.1958C18.2885 13.8664 18.8155 13.8664 19.1449 14.1958L22.1589 17.2097C22.2372 17.2874 22.2993 17.3797 22.3417 17.4815C22.3841 17.5833 22.406 17.6924 22.406 17.8027C22.406 17.9129 22.3841 18.0221 22.3417 18.1238C22.2993 18.2256 22.2372 18.318 22.1589 18.3956C22.0107 18.5603 21.7966 18.6426 21.566 18.6426V18.6426ZM19.4579 20.7672C19.2438 20.7672 19.0296 20.6849 18.8649 20.5202L15.851 17.5062C15.5216 17.1768 15.5216 16.6498 15.851 16.3204C16.1804 15.991 16.7074 15.991 17.0368 16.3204L20.0508 19.3344C20.1291 19.412 20.1912 19.5043 20.2336 19.6061C20.276 19.7079 20.2978 19.817 20.2978 19.9273C20.2978 20.0375 20.276 20.1467 20.2336 20.2484C20.1912 20.3502 20.1291 20.4426 20.0508 20.5202C19.8861 20.6849 19.672 20.7672 19.4579 20.7672V20.7672ZM17.1685 23.0566C16.9544 23.0566 16.7403 22.9742 16.5756 22.8095L13.5616 19.7955C13.2322 19.4661 13.2322 18.9391 13.5616 18.6097C13.891 18.2803 14.4181 18.2803 14.7475 18.6097L17.7615 21.6237C17.8397 21.7013 17.9019 21.7937 17.9443 21.8954C17.9867 21.9972 18.0085 22.1063 18.0085 22.2166C18.0085 22.3268 17.9867 22.436 17.9443 22.5378C17.9019 22.6395 17.8397 22.7319 17.7615 22.8095C17.5968 22.9742 17.3827 23.0566 17.1685 23.0566V23.0566Z" fill="#0A84FF" stroke="#0A84FF" stroke-width="0.5"/>
</svg>
