<svg width="28" height="26" viewBox="0 0 28 26" fill="none" xmlns="http://www.w3.org/2000/svg">
<path d="M20.3811 24.501C20.1076 24.0474 20.225 23.4595 20.6544 23.1498C23.7911 20.8892 25.5279 17.2037 25.2158 13.2392C24.8056 8.02239 20.6596 3.72376 15.4607 3.12505C8.75641 2.35296 3.04948 7.59782 3.04948 14.1505C3.04948 16.2441 3.62251 18.2488 4.71412 20.0023C4.99306 20.4505 4.87696 21.0372 4.45342 21.3523C3.9726 21.7101 3.28399 21.5827 2.96755 21.0737C1.59212 18.8617 0.913527 16.313 1.00882 13.66C1.2387 7.26674 6.16301 1.87034 12.5139 1.09954C20.4931 0.130959 27.3014 6.36057 27.3014 14.1505C27.3014 18.4299 25.2857 22.3384 21.857 24.8093C21.3726 25.1583 20.6896 25.0124 20.3811 24.501Z" fill="#FF453A" stroke="#FF453A" stroke-width="0.5"/>
<path d="M9.67336 13.2405C9.09211 13.2405 8.62105 12.7695 8.62105 12.1882V11.1051C8.62105 10.5238 9.09211 10.0528 9.67336 10.0528C10.2546 10.0528 10.7257 10.5238 10.7257 11.1051V12.1882C10.7257 12.7695 10.2544 13.2405 9.67336 13.2405ZM13.8412 13.2405C13.26 13.2405 12.7889 12.7695 12.7889 12.1882V11.1051C12.7889 10.5238 13.26 10.0528 13.8412 10.0528C14.4225 10.0528 14.8936 10.5238 14.8936 11.1051V12.1882C14.8938 12.7695 14.4225 13.2405 13.8412 13.2405ZM11.7002 18.0587C11.0842 18.0587 10.2746 17.7472 9.62096 17.3974C9.10033 17.1187 8.99682 16.4175 9.41445 15.9998C9.6898 15.7245 10.1133 15.6611 10.4544 15.8488C10.8448 16.0635 11.3621 16.3022 11.7323 16.3022C12.1871 16.3022 12.6238 16.1822 13.006 15.9575C13.344 15.7587 13.7747 15.8252 14.0519 16.1023L14.0973 16.1478C14.4947 16.5451 14.4323 17.2245 13.9496 17.5127C13.2862 17.909 12.4933 18.0587 11.7002 18.0587Z" fill="#FF453A" stroke="#FF453A" stroke-width="0.5"/>
</svg>
