<svg width="24" height="15" viewBox="0 0 24 15" fill="currentColor" xmlns="http://www.w3.org/2000/svg">
    <path d="M10.7963 14.4528C11.4239 15.1517 12.4731 15.1842 13.1438 14.5327C13.1701 14.5052 13.1965 14.4802 13.2204 14.4528L23.4988 3.20258C23.8222 2.84313 24.0018 2.36886 23.9995 1.87462C24.0234 0.863672 23.2569 0.0274578 22.2868 0C21.8317 0.00748849 21.3981 0.204685 21.0867 0.549156L11.9964 10.4739L2.92765 0.549156C2.61386 0.202189 2.17312 0.00249616 1.71321 0C0.743102 0.0274578 -0.0234069 0.863672 0.000546454 1.87462C-0.00184889 2.36886 0.177802 2.84313 0.501172 3.20258L10.7963 14.4528Z" fill="currentColor"/>
    </svg>
    