<svg viewBox="0 0 21 21" fill="none" xmlns="http://www.w3.org/2000/svg">
<path d="M0.669108 6.186L0.774631 4.67573C0.789567 4.46196 0.880047 4.26047 1.02989 4.10728C1.16432 3.96986 1.3391 3.87892 1.52879 3.84772L20.0147 0.806623C20.2204 0.772783 20.4313 0.819397 20.6035 0.936804C20.8447 1.10119 20.9791 1.38245 20.9554 1.67339L20.8373 3.12165C20.8002 3.5771 20.4591 3.94945 20.0086 4.0262L16.8228 4.569V13.9271C16.8228 14.5614 16.9737 15.1866 17.2629 15.7511L19.0809 19.2992C19.1839 19.5001 19.2376 19.7228 19.2376 19.9486V20.1431C19.2376 20.232 19.2173 20.3197 19.1782 20.3996C19.0802 20.6 18.8766 20.7271 18.6536 20.7271H17.5652C16.7033 20.7271 15.9119 20.2508 15.5083 19.4891L13.776 16.2196C13.4703 15.6427 13.3105 14.9997 13.3105 14.3468V5.24225L8.48102 6.13992V18.1912C8.48102 18.8009 8.20294 19.3772 7.72575 19.7567L6.77858 20.5098C6.60165 20.6505 6.38227 20.7271 6.15622 20.7271H5.94607C5.74217 20.7271 5.54687 20.6449 5.40429 20.4991C5.26577 20.3575 5.1882 20.1673 5.1882 19.9692V6.58876L1.85781 7.23727C1.21229 7.36296 0.62327 6.84204 0.669108 6.186Z"/>
</svg>
