<svg width="26" height="26" viewBox="0 0 26 26" fill="none" xmlns="http://www.w3.org/2000/svg">
<path d="M12.9912 24.9431C10.958 24.9437 8.95872 24.4223 7.18479 23.4288L2.91534 23.5996C2.7834 23.6 2.65296 23.5716 2.53304 23.5166C2.41313 23.4615 2.30661 23.3811 2.22084 23.2808C2.14583 23.1834 2.09275 23.0709 2.06524 22.951C2.03773 22.8311 2.03644 22.7067 2.06145 22.5863L2.8698 19.4326C1.44195 17.184 0.802818 14.5243 1.05311 11.8724C1.3034 9.22056 2.42889 6.72735 4.25224 4.78561C6.07559 2.84386 8.49317 1.56396 11.1241 1.14756C13.7549 0.731152 16.4496 1.20192 18.7835 2.48568C21.1173 3.76943 22.9578 5.79322 24.0147 8.23816C25.0717 10.6831 25.2852 13.4102 24.6216 15.9899C23.9579 18.5695 22.4548 20.855 20.3491 22.4863C18.2435 24.1176 15.6549 25.0019 12.9912 25V24.9431ZM7.40111 21.7211C7.55287 21.7199 7.70221 21.7592 7.83374 21.8349C9.78652 22.9623 12.0567 23.4142 14.2923 23.1203C16.528 22.8265 18.6043 21.8034 20.1994 20.2097C21.7945 18.6159 22.8194 16.5405 23.1152 14.3051C23.411 12.0698 22.9611 9.79922 21.8354 7.84546C20.7097 5.89169 18.9709 4.36381 16.8886 3.49863C14.8064 2.63345 12.4968 2.47928 10.318 3.06003C8.13922 3.64077 6.21282 4.92399 4.8374 6.7108C3.46198 8.49761 2.71436 10.6882 2.71041 12.9431C2.70079 15.0084 3.32465 17.027 4.49788 18.7268C4.56542 18.8298 4.61134 18.9455 4.63287 19.0669C4.6544 19.1882 4.65108 19.3126 4.62312 19.4326L3.99693 21.8463L7.41249 21.7211H7.40111Z" fill="#FF375F" stroke="#FF375F" stroke-width="0.5"/>
<path d="M8.85187 17.7772C8.75856 17.7932 8.66314 17.7932 8.56982 17.7772C8.46096 17.7391 8.36106 17.6797 8.27612 17.6025C8.19117 17.5254 8.12294 17.4322 8.07552 17.3285C8.0281 17.2248 8.00247 17.1127 8.00017 16.999C7.99787 16.8853 8.01894 16.7723 8.06213 16.6668L11.0519 8.56083C11.0906 8.45369 11.151 8.35536 11.2293 8.27176C11.3077 8.18816 11.4024 8.121 11.5078 8.07433C11.6131 8.02766 11.727 8.00243 11.8426 8.00017C11.9581 7.9979 12.0729 8.01865 12.1801 8.06115C12.2899 8.09769 12.3908 8.15636 12.4764 8.23341C12.5619 8.31046 12.6302 8.4042 12.6769 8.50867C12.7236 8.61313 12.7477 8.72603 12.7476 8.84016C12.7476 8.95429 12.7233 9.06715 12.6765 9.17156L9.68674 17.2775C9.61583 17.4346 9.49789 17.5666 9.3487 17.6559C9.19951 17.7452 9.02617 17.7875 8.85187 17.7772V17.7772ZM13.1503 17.9882C13.0532 18.0039 12.9541 18.0039 12.857 17.9882C12.7472 17.9514 12.6462 17.8928 12.5603 17.8159C12.4745 17.7391 12.4056 17.6457 12.358 17.5416C12.3104 17.4374 12.2851 17.3248 12.2836 17.2106C12.2821 17.0964 12.3044 16.9831 12.3493 16.8778L15.3503 8.78292C15.3858 8.67718 15.4424 8.57951 15.5169 8.49569C15.5914 8.41187 15.6822 8.3436 15.7839 8.29492C15.8857 8.24624 15.9963 8.21814 16.1093 8.21227C16.2222 8.2064 16.3353 8.22289 16.4417 8.26077C16.548 8.29864 16.6456 8.35713 16.7287 8.43277C16.8117 8.50841 16.8784 8.59967 16.925 8.70115C16.9716 8.80263 16.997 8.91227 16.9997 9.02358C17.0025 9.1349 16.9826 9.24563 16.9411 9.34922L13.9401 17.4552C13.8785 17.6122 13.7701 17.7471 13.6292 17.8422C13.4882 17.9374 13.3213 17.9883 13.1503 17.9882V17.9882Z" fill="#FF375F" stroke="#FF375F" stroke-width="0.5"/>
<path d="M17.1717 11.7193H8.4247C8.23745 11.679 8.06911 11.5715 7.94819 11.4148C7.82727 11.2581 7.76122 11.062 7.76122 10.8596C7.76122 10.6573 7.82727 10.4612 7.94819 10.3045C8.06911 10.1478 8.23745 10.0403 8.4247 10H17.1717C17.3914 10 17.6021 10.0924 17.7574 10.2569C17.9127 10.4214 18 10.6445 18 10.8772C18 11.1098 17.9127 11.333 17.7574 11.4975C17.6021 11.662 17.3914 11.7544 17.1717 11.7544V11.7193ZM16.5974 16H7.82831C7.60863 16 7.39795 15.9076 7.24261 15.7431C7.08727 15.5786 7 15.3555 7 15.1228C7 14.8902 7.08727 14.667 7.24261 14.5025C7.39795 14.338 7.60863 14.2456 7.82831 14.2456H16.5974C16.8171 14.2456 17.0278 14.338 17.1831 14.5025C17.3384 14.667 17.4257 14.8902 17.4257 15.1228C17.4257 15.3555 17.3384 15.5786 17.1831 15.7431C17.0278 15.9076 16.8171 16 16.5974 16Z" fill="#FF375F" stroke="#FF375F" stroke-width="0.5"/>
</svg>
