<svg width="24" height="24" viewBox="0 0 24 24" fill="none" xmlns="http://www.w3.org/2000/svg">
    <path d="M23.3569 3.07584V19.8862C23.3859 20.3326 23.3753 20.7807 23.3251 21.2253C23.2299 21.7721 23.0079 22.2891 22.6769 22.7347C22.2062 23.3346 21.5397 23.7501 20.7939 23.9088C20.3881 23.9755 19.9762 23.9968 19.5657 23.9724H4.45311C4.07477 23.9948 3.69514 23.9799 3.31971 23.928C2.57456 23.7967 1.8992 23.4079 1.41151 22.8294C1.06259 22.3948 0.820991 21.884 0.706286 21.3386C0.641791 20.8466 0.624922 20.3496 0.655912 19.8544V4.02274C0.626199 3.51196 0.653554 2.99946 0.737469 2.49475C0.859248 1.97365 1.10902 1.49113 1.46418 1.09084C1.81934 0.690543 2.2687 0.385108 2.7716 0.202159C3.35424 0.0347545 3.96169 -0.0293798 4.56645 0.0126591H16.6615C17.1148 0.0126591 19.9669 0.0168569 20.4203 0.0186559C20.8576 0.0678782 21.2823 0.196305 21.6736 0.397656C22.365 0.787609 22.896 1.40961 23.1728 2.15353C23.2405 2.3509 23.2911 2.55375 23.3239 2.75981C23.3359 2.86535 23.3461 2.9703 23.3569 3.07584ZM21.5621 3.17659L21.5495 3.04406L21.4673 2.72803C21.3499 2.43155 21.1395 2.18115 20.8676 2.0144C20.4364 1.82474 19.962 1.75493 19.4944 1.81231H4.79493C4.36852 1.77572 3.93925 1.79062 3.5164 1.85669C3.28228 1.9194 3.06778 2.04023 2.89281 2.20797C2.71784 2.3757 2.58807 2.58491 2.51553 2.81618C2.44861 3.16132 2.42744 3.51376 2.45256 3.86443V19.9485C2.42411 20.315 2.43457 20.6835 2.48375 21.0478C2.55004 21.2977 2.67317 21.529 2.84356 21.7236C3.21296 22.1818 3.82404 22.1716 4.651 22.1716H19.4908C19.823 22.1956 20.1568 22.1809 20.4856 22.1278C20.7991 22.0455 21.0762 21.8611 21.273 21.6037C21.6035 21.1527 21.5627 20.6628 21.5627 19.8916V3.17659H21.5621ZM19.4158 11.8864C19.4442 12.0979 19.391 12.3122 19.267 12.4859C19.143 12.6595 18.9576 12.7795 18.7484 12.8213C18.5294 12.8475 18.3085 12.8517 18.0887 12.8339H9.5852C9.39102 12.8112 9.21068 12.722 9.07474 12.5815C8.9388 12.441 8.85563 12.2578 8.83932 12.063C8.82301 11.8681 8.87458 11.6737 8.98527 11.5125C9.09596 11.3514 9.25898 11.2335 9.44667 11.1788C9.67784 11.1418 9.91267 11.1333 10.1459 11.1536H18.1457C18.4102 11.1301 18.6768 11.1537 18.9331 11.2231C19.1313 11.3159 19.2866 11.4808 19.3672 11.6843L19.4158 11.8864ZM19.3187 17.3237C19.3361 17.532 19.2746 17.7392 19.1462 17.9042C19.0179 18.0692 18.8322 18.1799 18.626 18.2143L17.4926 18.2209H10.742C9.75311 18.2209 8.98911 18.3558 8.84039 17.482C8.81842 17.314 8.85145 17.1434 8.93454 16.9957C9.24398 16.3906 9.98939 16.5405 10.8619 16.5405H17.2264C17.7846 16.4749 18.3501 16.5115 18.8953 16.6485C19.0761 16.7548 19.2124 16.9228 19.2791 17.1216L19.3187 17.3237ZM19.5639 6.49944C19.5826 6.66301 19.554 6.8285 19.4813 6.97626C19.4087 7.12403 19.2953 7.24784 19.1544 7.333C18.6433 7.48033 18.1071 7.51894 17.5802 7.44634H10.6239C9.66856 7.44634 8.98372 7.54049 8.84159 6.70153C8.81962 6.5335 8.85265 6.36287 8.93574 6.21519C9.22299 5.65808 9.82687 5.76003 10.6424 5.76003H17.8986C18.2969 5.71958 18.6991 5.74531 19.089 5.83619C19.2856 5.9293 19.4389 6.09439 19.5172 6.29734L19.5639 6.49944ZM5.4126 5.40981C5.64981 5.40981 5.8817 5.48015 6.07893 5.61194C6.27617 5.74373 6.4299 5.93104 6.52067 6.1502C6.61145 6.36936 6.6352 6.61051 6.58892 6.84316C6.54265 7.07582 6.42842 7.28952 6.26068 7.45726C6.09295 7.62499 5.87924 7.73922 5.64659 7.7855C5.41393 7.83178 5.17278 7.80803 4.95362 7.71725C4.73447 7.62647 4.54715 7.47275 4.41536 7.27551C4.28358 7.07828 4.21323 6.84639 4.21323 6.60918C4.21323 6.45168 4.24426 6.29571 4.30453 6.1502C4.3648 6.00469 4.45315 5.87247 4.56452 5.7611C4.67589 5.64973 4.80811 5.56138 4.95362 5.50111C5.09914 5.44083 5.2551 5.40981 5.4126 5.40981V5.40981ZM5.4126 10.807C5.64981 10.807 5.8817 10.8773 6.07893 11.0091C6.27617 11.1409 6.4299 11.3282 6.52067 11.5474C6.61145 11.7665 6.6352 12.0077 6.58892 12.2403C6.54265 12.473 6.42842 12.6867 6.26068 12.8544C6.09295 13.0221 5.87924 13.1364 5.64659 13.1827C5.41393 13.2289 5.17278 13.2052 4.95362 13.1144C4.73447 13.0236 4.54715 12.8699 4.41536 12.6727C4.28358 12.4754 4.21323 12.2435 4.21323 12.0063C4.21323 11.8488 4.24426 11.6929 4.30453 11.5474C4.3648 11.4018 4.45315 11.2696 4.56452 11.1582C4.67589 11.0469 4.80811 10.9585 4.95362 10.8983C5.09914 10.838 5.2551 10.807 5.4126 10.807V10.807ZM5.4126 16.2041C5.64981 16.2041 5.8817 16.2745 6.07893 16.4062C6.27617 16.538 6.4299 16.7253 6.52067 16.9445C6.61145 17.1637 6.6352 17.4048 6.58892 17.6375C6.54265 17.8701 6.42842 18.0838 6.26068 18.2516C6.09295 18.4193 5.87924 18.5335 5.64659 18.5798C5.41393 18.6261 5.17278 18.6023 4.95362 18.5116C4.73447 18.4208 4.54715 18.267 4.41536 18.0698C4.28358 17.8726 4.21323 17.6407 4.21323 17.4035C4.21323 17.246 4.24426 17.09 4.30453 16.9445C4.3648 16.799 4.45315 16.6668 4.56452 16.5554C4.67589 16.444 4.80811 16.3557 4.95362 16.2954C5.09914 16.2351 5.2551 16.2041 5.4126 16.2041V16.2041Z" fill="#5856D6"/>
    </svg>
    