<svg width="23" height="24" viewBox="0 0 23 24" fill="none" xmlns="http://www.w3.org/2000/svg">
    <path fill-rule="evenodd" clip-rule="evenodd" d="M22.7161 19.886C22.7451 20.3324 22.7344 20.7806 22.6843 21.2251C22.589 21.772 22.367 22.2889 22.036 22.7345C21.5653 23.3344 20.8989 23.75 20.153 23.9087C19.7473 23.9753 19.3354 23.9967 18.9249 23.9723H3.81225C3.43391 23.9946 3.05429 23.9798 2.67885 23.9279C1.93371 23.7966 1.25835 23.4077 0.77066 22.8293C0.42174 22.3946 0.180137 21.8839 0.0654319 21.3385C0.000937164 20.8465 -0.0159322 20.3494 0.0150584 19.8542V4.02259C-0.014655 3.51181 0.0126997 2.99931 0.0966154 2.4946C0.218394 1.9735 0.468162 1.49098 0.823326 1.09068C1.17849 0.690391 1.62784 0.384955 2.13074 0.202007C2.71339 0.0346019 3.32084 -0.0295324 3.92559 0.0125065H16.0206C16.474 0.0125065 19.3261 0.0167043 19.7794 0.0185033C20.2167 0.0677256 20.6415 0.196153 21.0328 0.397503C21.7241 0.787456 22.2552 1.40945 22.532 2.15338C22.5997 2.35075 22.6502 2.55359 22.6831 2.75966C22.6923 2.84029 22.7004 2.92057 22.7085 3.00103C22.711 3.0259 22.7135 3.05078 22.7161 3.07569V19.886ZM5.19937 5.40965C5.43658 5.40965 5.66846 5.47999 5.8657 5.61178C6.06293 5.74357 6.21666 5.93089 6.30744 6.15004C6.39822 6.3692 6.42197 6.61035 6.37569 6.843C6.32941 7.07566 6.21518 7.28937 6.04745 7.4571C5.87971 7.62483 5.66601 7.73906 5.43335 7.78534C5.2007 7.83162 4.95954 7.80787 4.74039 7.71709C4.52123 7.62631 4.33392 7.47259 4.20213 7.27535C4.07034 7.07812 4 6.84623 4 6.60902C4 6.45152 4.03102 6.29556 4.0913 6.15004C4.15157 6.00453 4.23991 5.87231 4.35129 5.76094C4.46266 5.64957 4.59487 5.56122 4.74039 5.50095C4.8859 5.44068 5.04186 5.40965 5.19937 5.40965ZM19.2681 6.97611C19.3407 6.82835 19.3694 6.66285 19.3507 6.49928L19.3039 6.29718C19.2256 6.09424 19.0723 5.92914 18.8758 5.83603C18.4859 5.74515 18.0837 5.71942 17.6854 5.75987H10.4292C10.3156 5.75987 10.2061 5.75789 10.101 5.75599L10.1009 5.75599H10.1009C9.4515 5.74425 8.96973 5.73555 8.72251 6.21503C8.63941 6.36272 8.60638 6.53334 8.62836 6.70137C8.75706 7.46112 9.33085 7.45564 10.1475 7.44783H10.1475H10.1475H10.1476H10.1476H10.1476C10.2327 7.44702 10.3205 7.44618 10.4106 7.44618H17.3669C17.8938 7.51878 18.4301 7.48017 18.9411 7.33284C19.082 7.24768 19.1955 7.12387 19.2681 6.97611ZM19.2026 11.8862C19.231 12.0977 19.1777 12.3121 19.0538 12.4857C18.9298 12.6594 18.7444 12.7793 18.5351 12.8211C18.3162 12.8473 18.0952 12.8515 17.8755 12.8337H9.37197C9.17779 12.811 8.99744 12.7218 8.8615 12.5813C8.72556 12.4408 8.64239 12.2576 8.62609 12.0628C8.60978 11.868 8.66134 11.6735 8.77204 11.5124C8.88273 11.3512 9.04574 11.2333 9.23344 11.1786C9.46461 11.1416 9.69944 11.1332 9.93267 11.1534H17.9324C18.197 11.13 18.4635 11.1535 18.7198 11.223C18.9181 11.3157 19.0734 11.4807 19.154 11.6841L19.2026 11.8862ZM19.1054 17.3236C19.1229 17.5319 19.0613 17.7391 18.933 17.9041C18.8047 18.0691 18.619 18.1797 18.4128 18.2141L17.2794 18.2207H10.5288C10.408 18.2207 10.2907 18.2227 10.1774 18.2246C9.36252 18.2386 8.75773 18.249 8.62716 17.4819C8.60518 17.3139 8.63821 17.1432 8.72131 16.9955C8.97762 16.4943 9.53304 16.5112 10.2121 16.5317C10.3528 16.536 10.4989 16.5404 10.6487 16.5404H17.0131C17.5714 16.4747 18.1369 16.5113 18.6821 16.6483C18.8629 16.7546 18.9992 16.9226 19.0658 17.1215L19.1054 17.3236ZM5.8657 11.0089C5.66846 10.8771 5.43658 10.8068 5.19937 10.8068C5.04186 10.8068 4.8859 10.8378 4.74039 10.8981C4.59487 10.9584 4.46266 11.0467 4.35129 11.1581C4.23991 11.2695 4.15157 11.4017 4.0913 11.5472C4.03102 11.6927 4 11.8487 4 12.0062C4 12.2434 4.07034 12.4753 4.20213 12.6725C4.33392 12.8697 4.52123 13.0235 4.74039 13.1142C4.95954 13.205 5.2007 13.2288 5.43335 13.1825C5.66601 13.1362 5.87971 13.022 6.04745 12.8543C6.21518 12.6865 6.32941 12.4728 6.37569 12.2402C6.42197 12.0075 6.39822 11.7663 6.30744 11.5472C6.21666 11.328 6.06293 11.1407 5.8657 11.0089ZM5.19937 16.204C5.43658 16.204 5.66846 16.2743 5.8657 16.4061C6.06293 16.5379 6.21666 16.7252 6.30744 16.9443C6.39822 17.1635 6.42197 17.4047 6.37569 17.6373C6.32941 17.87 6.21518 18.0837 6.04745 18.2514C5.87971 18.4191 5.66601 18.5334 5.43335 18.5796C5.2007 18.6259 4.95954 18.6022 4.74039 18.5114C4.52123 18.4206 4.33392 18.2669 4.20213 18.0697C4.07034 17.8724 4 17.6405 4 17.4033C4 17.2458 4.03102 17.0899 4.0913 16.9443C4.15157 16.7988 4.23991 16.6666 4.35129 16.5552C4.46266 16.4439 4.59487 16.3555 4.74039 16.2953C4.8859 16.235 5.04186 16.204 5.19937 16.204Z" fill="#5856D6"/>
    </svg>
    