<svg width="24" height="24" viewBox="0 0 24 24" fill="none" xmlns="http://www.w3.org/2000/svg">
<path fill-rule="evenodd" clip-rule="evenodd" d="M12 22C17.567 22 22 17.567 22 12C22 6.43297 17.567 2 12 2C6.43297 2 2 6.43297 2 12C2 17.567 6.43297 22 12 22ZM12 24C18.6274 24 24 18.6274 24 12C24 5.37258 18.6274 0 12 0C5.37258 0 0 5.37258 0 12C0 18.6274 5.37258 24 12 24Z" fill="black"/>
<path fill-rule="evenodd" clip-rule="evenodd" d="M22 12C22 17.567 17.567 22 12 22V16.5C14.5184 16.5 16.56 14.5184 16.56 12C16.56 9.4816 14.5184 7.5 12 7.5V2C17.567 2 22 6.43298 22 12Z" fill="black"/>
<path d="M12 16.56C9.48158 16.56 7.44 14.5184 7.44 12C7.44 9.48158 9.48158 7.44 12 7.44V16.56Z" fill="black"/>
</svg>
