<svg viewBox="0 0 23 22" fill="none" xmlns="http://www.w3.org/2000/svg">
<path d="M12.7687 2.96656V19.0925H14.4958L15.2211 21.1023L18.2837 19.0925H22.0687V2.96656H12.7687ZM19.8984 16.9561H18.1743L16.0127 18.3748L15.5003 16.9561H14.9822V5.16773H19.8956V16.9561H19.8984ZM11.6577 10.195H7.83523C7.89567 8.93112 7.959 7.25912 8.0252 5.32817H11.793L11.7901 5.10017C11.7901 5.08329 11.7843 4.6864 11.7239 4.28107C11.6635 3.85885 11.5339 3.2987 11.1194 3.2987H4.79855C4.9252 2.71886 5.25046 1.33679 5.64479 0.658423L5.82901 0.343166L5.4577 0.323462C5.43467 0.323462 4.89354 0.298129 4.26606 0.621831C3.23848 1.15664 2.77794 2.20938 2.57646 2.99752C2.04684 5.05514 1.29271 6.48505 0.973211 7.09587C0.878225 7.27601 0.820658 7.38298 0.794752 7.45616C0.742942 7.59409 0.771726 7.73201 0.875347 7.82208C1.17757 8.08949 1.97488 7.74046 1.98352 7.73764C2.00079 7.7292 2.02093 7.72075 2.04684 7.70949C2.44693 7.53216 3.63282 7.00579 4.05594 5.33099H5.68797C5.70812 6.23735 5.7772 9.22667 5.77144 10.1978H1.71295L1.6525 10.24C0.987603 10.7157 0.774604 12.0189 0.765969 12.0752L0.725672 12.3342H5.53254C5.1785 14.5382 4.76977 15.5262 4.55389 15.9203C4.44739 16.1173 4.34377 16.3143 4.24591 16.5057C3.63282 17.6936 2.9967 18.9208 0.610537 20.8293C0.506916 20.9081 0.409052 21.0545 0.472376 21.2149C0.541457 21.3922 0.740064 21.471 1.18045 21.471C1.33588 21.471 1.5201 21.4626 1.73886 21.4429C3.17516 21.319 4.64025 20.9362 5.62752 18.9771C6.11685 17.9891 6.53996 16.9589 6.89112 15.9118L10.8201 20.4155L10.964 20.0777C10.987 20.0242 11.5109 18.7745 11.1108 17.3783L11.0964 17.3277L7.9849 13.8655L7.35166 14.3327C7.53588 13.5981 7.65677 12.9281 7.71146 12.3314H12.2794V12.1062C12.2794 10.9775 11.7469 10.3076 11.7268 10.2794L11.6577 10.195Z"/>
</svg>
